# xmcd
#
# Track frame offsets: 
#        150
#        13736
#        24298
#        36223
#        46402
#        56409
#        68186
#        81794
#        95106
#        105667
#        117017
#        128238
#        138933
#        151088
#
# Disc length: 2183 seconds
#
# Revision: 0
# Processed by: cddbd v1.5.2PL0 Copyright (c) Steve Scherf et al.
# Submitted via: ExactAudioCopy v0.99pb4
#
DISCID=af08850e
DTITLE=Various Artist - Slow Dancing [CD1]
DYEAR=1991
DGENRE=Doo Wop
TTITLE0=Johnny Mathis - Chances Are
TTITLE1=The Fleetwoods - Come Softly To Me
TTITLE2=Skeeter Davis - The End of the World
TTITLE3=The Capris - There's a Moon Out Tonight
TTITLE4=Little Anthony and The Imperials - Tears On My Pillow
TTITLE5=LaVern Baker - I Cried a Tear
TTITLE6=The Five Satins - In the Still of the Night
TTITLE7=Ben E. King - Spanish Harlem
TTITLE8=Connie Francis - Who's Sorry Now
TTITLE9=The Mello-Kings - Tonight, Tonight
TTITLE10=Dinah Washington - What a Difference a Day Makes
TTITLE11=Ferlin Husky - Gone
TTITLE12=Paul Anka - Puppy Love
TTITLE13=Bobby Vinton - Blue Velvet
EXTD=
EXTT0=
EXTT1=
EXTT2=
EXTT3=
EXTT4=
EXTT5=
EXTT6=
EXTT7=
EXTT8=
EXTT9=
EXTT10=
EXTT11=
EXTT12=
EXTT13=
PLAYORDER=
